<svg xmlns="http://www.w3.org/2000/svg" viewBox="0 0 200.61 167.48"><defs><style>.cls-1,.cls-2{fill:#fff;}.cls-2{fill-rule:evenodd;}</style></defs><title>Ativo 1</title><g id="Camada_2" data-name="Camada 2"><g id="conteúdo"><path class="cls-1" d="M33.59,98.11l7.34,5.54-4.48,5.71a17.13,17.13,0,0,1,4.24,11.9c0,5-1.87,12-8.48,15,6.68,3.34,8.32,8.15,8.32,13.29,0,11.09-8.48,17.93-20.13,17.93S0,160.39,0,149.55H9.86c0,5.22,4.81,8.64,10.52,8.64s10.19-3.1,10.19-8.64-5.22-8.07-10.19-8.07C7.83,141.48,0,133.81,0,121.26s9.13-20.38,20.38-20.38c3.18,0,6.44.41,9.21,2.28ZM9.86,121.26c0,7,4.73,11.17,10.52,11.17s10.43-4.24,10.43-11.17-4.73-11.33-10.43-11.33S9.86,114.25,9.86,121.26Z"/><path class="cls-1" d="M86.26,122.32c0,11.58-7.91,20.95-20.95,20.95s-20.87-9.37-20.87-20.95,8-21,20.79-21S86.26,110.83,86.26,122.32Zm-31.87,0c0,6.11,3.67,11.82,10.92,11.82s10.92-5.71,10.92-11.82-4.24-11.9-10.92-11.9C58.13,110.42,54.38,116.29,54.38,122.32Z"/><path class="cls-1" d="M116.66,142.37V120.85c0-5.3-2.77-10.11-8.23-10.11s-8.56,4.81-8.56,10.11v21.52H89.92V102.1h9.21l.73,4.89c2.12-4.08,6.77-5.54,10.6-5.54,4.81,0,9.62,2,11.9,7.5,3.59-5.71,8.23-7.34,13.45-7.34,11.41,0,17,7,17,19.08v21.68h-9.94V120.69c0-5.3-2.2-9.78-7.58-9.78s-8.72,4.65-8.72,9.95v21.52Z"/><path class="cls-1" d="M191.07,102.19h9.54v40.19h-9.37l-.49-5.87c-2.28,4.73-8.56,7-13,7.09-11.9.08-20.71-7.26-20.71-21.36,0-13.86,9.21-21.11,20.95-21,5.38,0,10.52,2.53,12.8,6.52Zm-24.13,20.05c0,7.66,5.3,12.23,11.9,12.23,15.65,0,15.65-24.38,0-24.38C172.24,110.09,166.94,114.58,166.94,122.24Z"/><path class="cls-2" d="M107,14.86S88.46,15,82.55,36.72c-7.26,26.6,31.55,55.87,51.62,44.91,11.14-6.08,3.09-23.38-12.91-32.84C121.25,48.79,98.33,33.72,107,14.86Z"/><path class="cls-2" d="M133.39,52.79s17.28-19.37,11.66-34.14c-2.89-7.61-15.91-7.48-15.91-7.48s-16.74.29-19.14,4.68-2.17,9.91,7.64,21.16C121.35,41.26,133.39,52.79,133.39,52.79Z"/><path class="cls-2" d="M141.14,5.51s-3.49-12.38-28.57,0C112.57,5.48,116.18,10.54,141.14,5.51Z"/><path class="cls-2" d="M103.2,12S86.29,8.82,78.75,18.34c-4.35,5.49.11,10.22,4.28,7.57C83,25.91,91.51,14.06,103.2,12Z"/><path class="cls-2" d="M72.45,51.86S62.33,57,77.32,71.79a41.23,41.23,0,0,0,27.07,11.52S88.57,77.75,72.45,51.86Z"/></g></g></svg>