<?xml version="1.0" encoding="utf-8"?>
<!-- Generator: Adobe Illustrator 20.1.0, SVG Export Plug-In . SVG Version: 6.00 Build 0)  -->
<svg xmlns="http://www.w3.org/2000/svg" xmlns:xlink="http://www.w3.org/1999/xlink" version="1.1" id="logo_caos" x="0px" y="0px" viewBox="0 0 525 405" style="enable-background:new 0 0 525 405;" xml:space="preserve">
<style type="text/css">
	.st0{clip-path:url(#SVGID_2_);fill:#cccccc;}
</style>
<g>
	<defs>
		<rect id="SVGID_1_" x="0" width="525" height="405"/>
	</defs>
	<clipPath id="SVGID_2_">
		<use xlink:href="#SVGID_1_" style="overflow:visible;"/>
	</clipPath>
	<path class="st0" d="M199,206.9l-0.7,3.5c-4.2,20.2-11,37.5-37.8,37.5c-30,0-30.5-22.5-26.3-41.8l9.9-46.4   c3.5-16.7,10.3-37.1,36.6-37.1c30,0,31,21.3,27.9,37.3l-1.2,6.1h-23.2l1.6-8.9c1.6-8.4,1.9-15-6.1-15c-7.3,0-9.1,7-11.3,16.4   l-12,54.7c-1.9,8.4-1.2,15,6.3,15c7.5,0,9.6-7.5,11.5-15.7l1.2-5.6H199z"/>
	<path class="st0" d="M276.6,216c-1.9,9.6-5.4,26-6.1,30h-23c0.2-2.3,0.7-6.1,1.4-9.9c-5.6,8-11.5,11.7-21.3,11.7   c-19.2,0-21.8-18.1-18.1-36.8c6.6-29.6,21.3-36.4,53.3-40.6l3-14.8c1.9-8.4,1.2-14.3-6.1-14.3c-7,0-8.9,6.1-11,14.5l-0.9,3.8h-23.5   l0.5-1.9c3.3-15.2,7.5-35.2,36.8-35.2c24.4,0,31.9,12.9,27.9,32.6L276.6,216z M259.2,189.1c-15,2.6-22.3,6.1-25.8,20.9   c-1.9,8.2-2.1,17.4,6.6,17.4c8.9,0,12.7-8.4,16.2-25.1L259.2,189.1z"/>
	<path class="st0" d="M374,163.3l-9.9,46c-5.4,25.8-14.1,38.7-39.6,38.7c-24.2,0-34.5-14.8-29.1-40.3l10.3-48.6   c4.7-22.8,15.2-36.4,39.2-36.4C369.3,122.7,378.9,138.6,374,163.3 M329.6,159l-11.3,52.8c-2.1,10.1,0.5,16.4,8.4,16.4   c7.7,0,10.8-6.1,12.9-16.4l11.3-52.5c1.9-9.1,1.4-16.9-8.2-16.9C334.1,142.4,331.7,149.7,329.6,159"/>
	<path class="st0" d="M399.8,208.1l-1.2,5.2c-1.6,8.4-0.9,16,7,16c6.1,0,8.7-4,10.3-10.6c2.8-12-1.2-19.2-10.3-28.1   c-15.2-14.8-19.2-23.9-16-41.5c3.3-17.1,14.3-26.3,31.4-26.3c22.3,0,31.9,14.1,27.9,34.2l-0.9,4.7h-22.3l0.9-5.6   c1.6-9.6,0.5-14.3-5.9-14.3c-4.7,0-7.5,3.5-8.7,10.1c-0.9,6.3-0.5,10.8,9.1,19.9c17.4,17.1,21.6,27.9,17.8,46.7   c-3.8,19-14.3,29.6-34.5,29.6c-27.2,0-33.5-16.9-28.4-38l0.5-1.9H399.8z"/>
	<path class="st0" d="M484.1,281.2c4.2,4.4,6.3,9.9,6.3,16.6c0,7.7-2.5,14.1-7.6,19.2c-5.1,5.1-11.5,7.6-19.2,7.6   c-6.7,0-12.2-2.2-16.6-6.6c-4.4-4.4-6.6-9.7-6.6-16.1c0-7.7,2.6-14.2,7.9-19.5c5.3-5.3,11.6-7.9,19-7.9   C474.2,274.6,479.9,276.8,484.1,281.2 M460.7,246.1L492.9,0H525l-36.9,246.1H460.7z"/>
</g>
</svg>
